<?xml version="1.0" standalone="no"?>
<!DOCTYPE svg PUBLIC "-//W3C//DTD SVG 20010904//EN"
 "http://www.w3.org/TR/2001/REC-SVG-20010904/DTD/svg10.dtd">
<svg version="1.0" xmlns="http://www.w3.org/2000/svg"
 width="600.000000pt" height="600.000000pt" viewBox="0 0 600.000000 600.000000"
 preserveAspectRatio="xMidYMid meet">

<g transform="translate(0.000000,600.000000) scale(0.100000,-0.100000)"
fill="#000000" stroke="none">
<path d="M0 5625 l0 -375 375 0 375 0 0 -375 0 -375 375 0 375 0 0 375 0 375
1500 0 1500 0 0 -375 0 -375 375 0 375 0 0 375 0 375 375 0 375 0 0 375 0 375
-3000 0 -3000 0 0 -375z"/>
<path d="M2250 4125 l0 -375 -750 0 -750 0 0 -375 0 -375 -375 0 -375 0 0
-1500 0 -1500 750 0 750 0 0 375 0 375 375 0 375 0 0 750 0 750 375 0 375 0 0
375 0 375 375 0 375 0 0 -1125 0 -1125 375 0 375 0 0 750 0 750 375 0 375 0 0
-1125 0 -1125 375 0 375 0 0 1500 0 1500 -375 0 -375 0 0 375 0 375 -1125 0
-1125 0 0 375 0 375 -375 0 -375 0 0 -375z"/>
</g>
</svg>
